<svg xmlns="http://www.w3.org/2000/svg" viewBox="0 0 1200 630" width="1200" height="630">
  <defs>
    <linearGradient id="bg" x1="0%" y1="0%" x2="100%" y2="100%">
      <stop offset="0%" style="stop-color:#8B4513"/>
      <stop offset="100%" style="stop-color:#5C2D0A"/>
    </linearGradient>
    <linearGradient id="card" x1="0%" y1="0%" x2="0%" y2="100%">
      <stop offset="0%" style="stop-color:#FFFFFF;stop-opacity:0.15"/>
      <stop offset="100%" style="stop-color:#FFFFFF;stop-opacity:0.05"/>
    </linearGradient>
  </defs>

  <!-- Background -->
  <rect width="1200" height="630" fill="url(#bg)"/>

  <!-- Decorative circles -->
  <circle cx="1050" cy="80" r="200" fill="rgba(255,255,255,0.05)"/>
  <circle cx="150" cy="580" r="250" fill="rgba(255,255,255,0.04)"/>

  <!-- Logo block (top left) -->
  <rect x="60" y="50" width="80" height="80" rx="18" fill="rgba(255,255,255,0.15)"/>
  <!-- Sofa icon -->
  <rect x="72" y="68" width="22" height="26" rx="5" fill="white" opacity="0.95"/>
  <rect x="98" y="68" width="22" height="26" rx="5" fill="white" opacity="0.95"/>
  <rect x="70" y="92" width="56" height="20" rx="5" fill="white"/>
  <rect x="76" y="112" width="6" height="10" rx="3" fill="rgba(255,255,255,0.7)"/>
  <rect x="110" y="112" width="6" height="10" rx="3" fill="rgba(255,255,255,0.7)"/>

  <!-- Store name -->
  <text x="160" y="88" font-family="Georgia, serif" font-size="24" font-weight="700" fill="rgba(255,255,255,0.7)" letter-spacing="4">NỘI THẤT</text>
  <text x="160" y="118" font-family="Georgia, serif" font-size="36" font-weight="700" fill="white">Khánh Huyền</text>

  <!-- Location tagline -->
  <text x="163" y="140" font-family="Arial, sans-serif" font-size="12" letter-spacing="3" fill="rgba(255,255,255,0.5)">ĐỒNG XOÀI • BÌNH PHƯỚC</text>

  <!-- Main keyword-focused headline -->
  <text x="600" y="310" font-family="Georgia, serif" font-size="52" font-weight="700" fill="white" text-anchor="middle">Nội Thất Đồng Xoài</text>
  <text x="600" y="380" font-family="Georgia, serif" font-size="64" font-weight="700" fill="#FFD700" text-anchor="middle">Bình Phước</text>

  <!-- Highlight badge -->
  <rect x="420" y="410" width="360" height="50" rx="25" fill="rgba(255,215,0,0.2)" stroke="#FFD700" stroke-width="2"/>
  <text x="600" y="443" font-family="Arial, sans-serif" font-size="22" font-weight="700" fill="#FFD700" text-anchor="middle" letter-spacing="2">GIÁ TỐT NHẤT THỊ TRƯỜNG</text>

  <!-- Sub tagline -->
  <text x="600" y="500" font-family="Arial, sans-serif" font-size="20" fill="rgba(255,255,255,0.8)" text-anchor="middle" letter-spacing="1">GIAO HÀNG TOÀN QUỐC • MIỄN PHÍ VẬN CHUYỂN</text>

  <!-- Product categories row (bottom) -->
  <rect x="140" y="540" width="140" height="40" rx="8" fill="url(#card)"/>
  <text x="210" y="565" font-family="Arial, sans-serif" font-size="14" fill="white" text-anchor="middle">Nội thất gỗ</text>

  <rect x="300" y="540" width="160" height="40" rx="8" fill="url(#card)"/>
  <text x="380" y="565" font-family="Arial, sans-serif" font-size="14" fill="white" text-anchor="middle">Nhựa giả mây</text>

  <rect x="480" y="540" width="160" height="40" rx="8" fill="url(#card)"/>
  <text x="560" y="565" font-family="Arial, sans-serif" font-size="14" fill="white" text-anchor="middle">Ga chăn gối đệm</text>

  <rect x="660" y="540" width="160" height="40" rx="8" fill="url(#card)"/>
  <text x="740" y="565" font-family="Arial, sans-serif" font-size="14" fill="white" text-anchor="middle">Bàn trang điểm</text>

  <rect x="840" y="540" width="160" height="40" rx="8" fill="url(#card)"/>
  <text x="920" y="565" font-family="Arial, sans-serif" font-size="14" fill="white" text-anchor="middle">Combo phòng ngủ</text>

  <!-- Domain -->
  <text x="600" y="620" font-family="Arial, sans-serif" font-size="18" fill="rgba(255,255,255,0.4)" text-anchor="middle">noithatkhanhhuyen.com</text>
</svg>